<svg xmlns="http://www.w3.org/2000/svg" width="126" height="126" viewBox="0 0 126 126">
  <metadata><?xpacket begin="﻿" id="W5M0MpCehiHzreSzNTczkc9d"?>
<x:xmpmeta xmlns:x="adobe:ns:meta/" x:xmptk="Adobe XMP Core 5.6-c142 79.160924, 2017/07/13-01:06:39        ">
   <rdf:RDF xmlns:rdf="http://www.w3.org/1999/02/22-rdf-syntax-ns#">
      <rdf:Description rdf:about=""/>
   </rdf:RDF>
</x:xmpmeta>
                                                                                                    
                                                                                                    
                                                                                                    
                                                                                                    
                                                                                                    
                                                                                                    
                                                                                                    
                                                                                                    
                                                                                                    
                                                                                                    
                                                                                                    
                                                                                                    
                                                                                                    
                                                                                                    
                                                                                                    
                                                                                                    
                                                                                                    
                                                                                                    
                                                                                                    
                                                                                                    
                           
<?xpacket end="w"?></metadata>
<defs>
    <style>
      .cls-1 {
        fill: #fdc536;
      }

      .cls-2 {
        fill-rule: evenodd;
      }
    </style>
  </defs>
  <circle id="Эллипс_1" data-name="Эллипс 1" class="cls-1" cx="63" cy="63" r="63"/>
  <path id="Forma_1" data-name="Forma 1" class="cls-2" d="M685.36,946.616l-3.8-3.75a1.274,1.274,0,0,0-.9-0.366H655.331a1.27,1.27,0,0,0-.895.366l-3.8,3.75a1.237,1.237,0,0,0-.294,1.311l5.066,13.75a1.268,1.268,0,0,0,1.19.823h22.8a1.266,1.266,0,0,0,1.189-.823l5.067-13.75A1.239,1.239,0,0,0,685.36,946.616ZM657.484,960L653,947.821l2.627-2.593L658.831,960h-1.347Zm3.937,0-3.256-15h3.587l1.085,15h-1.416Zm5.31,0h-1.354l-1.086-15h2.44v15Zm3.887,0h-1.354V945h2.44Zm2.54,0,1.086-15h3.587l-3.257,15h-1.416Zm5.353,0h-1.346l3.207-14.772L683,947.821Zm-25.8.786-2.534-6.25A1.266,1.266,0,0,0,649,953.75H636.331a1.259,1.259,0,0,0-1.267,1.25v6.25a1.259,1.259,0,0,0,1.267,1.25h15.2a1.258,1.258,0,0,0,1.267-1.25A1.232,1.232,0,0,0,652.708,960.786ZM637.6,960v-3.75H648.14l1.52,3.75H637.6Zm62.066-6.25H687a1.266,1.266,0,0,0-1.177.786l-2.533,6.25a1.244,1.244,0,0,0,.706,1.625,1.278,1.278,0,0,0,.47.089h15.2a1.259,1.259,0,0,0,1.267-1.25V955A1.258,1.258,0,0,0,699.664,953.75ZM698.4,960H686.335l1.52-3.75H698.4V960Zm1.266-17.5h-5.436a6.3,6.3,0,0,0-5.881,3.93l-1.259,3.106a1.243,1.243,0,0,0,.706,1.624,1.259,1.259,0,0,0,.47.09h8.867a3.775,3.775,0,0,0,3.8-3.75v-3.75A1.258,1.258,0,0,0,699.664,942.5Zm-1.266,5a1.259,1.259,0,0,1-1.267,1.25h-7l0.565-1.393A3.781,3.781,0,0,1,694.228,945h4.17v2.5Zm-49.49,2.036-1.259-3.106a6.3,6.3,0,0,0-5.881-3.93h-5.437a1.259,1.259,0,0,0-1.267,1.25v3.75a3.776,3.776,0,0,0,3.8,3.75h8.867A1.259,1.259,0,0,0,649,950,1.232,1.232,0,0,0,648.908,949.536Zm-10.044-.786a1.258,1.258,0,0,1-1.266-1.25V945h4.17a3.779,3.779,0,0,1,3.527,2.357l0.565,1.393h-7Zm53.11-15.464-5.066-12.5a1.268,1.268,0,0,0-1.177-.787H650.264a1.267,1.267,0,0,0-1.176.787l-5.067,12.5a1.245,1.245,0,0,0,.706,1.624,1.287,1.287,0,0,0,.471.089h45.6a1.258,1.258,0,0,0,1.267-1.249A1.229,1.229,0,0,0,691.974,933.286Zm-44.905-.786,4.053-10h33.752l4.053,10H647.069Zm51.854,1.25H702.2a3.751,3.751,0,1,0,0-7.5h-2.534a3.788,3.788,0,0,0-3.6,2.6L690.1,917.072A3.787,3.787,0,0,0,686.7,915H648.134a3.8,3.8,0,0,0-3.491,2.273l-4.858,11.184a3.8,3.8,0,0,0-3.454-2.207H633.8a3.751,3.751,0,1,0,0,7.5h3.274l-5.961,5.883A3.7,3.7,0,0,0,630,942.285V961.25a6.282,6.282,0,0,0,5.066,6.125v3.875a3.776,3.776,0,0,0,3.8,3.75h5.067a3.775,3.775,0,0,0,3.8-3.75V967.5h40.533v3.75a3.776,3.776,0,0,0,3.8,3.75h5.067a3.775,3.775,0,0,0,3.8-3.75v-3.875A6.282,6.282,0,0,0,706,961.25V942.285a3.706,3.706,0,0,0-1.114-2.652ZM698.4,930a1.258,1.258,0,0,1,1.266-1.25H702.2a1.25,1.25,0,1,1,0,2.5h-3.8V930Zm-64.6,1.249a1.25,1.25,0,1,1,0-2.5h2.533A1.258,1.258,0,0,1,637.6,930v1.249h-3.8Zm11.4,40a1.259,1.259,0,0,1-1.267,1.25h-5.067a1.258,1.258,0,0,1-1.266-1.25V967.5h7.6v3.75Zm53.2,0a1.259,1.259,0,0,1-1.267,1.25h-5.067a1.258,1.258,0,0,1-1.266-1.25V967.5h7.6v3.75Zm5.066-10a3.775,3.775,0,0,1-3.8,3.75H636.331a3.775,3.775,0,0,1-3.8-3.75V942.285a1.243,1.243,0,0,1,.371-0.884l7.032-6.938,7.037-16.206a1.27,1.27,0,0,1,1.163-.758H686.7a1.261,1.261,0,0,1,1.132.692l8.259,16.3,7,6.91a1.239,1.239,0,0,1,.371.884V961.25Z" transform="translate(-605 -882)"/>
</svg>
