<svg xmlns="http://www.w3.org/2000/svg" width="126" height="126" viewBox="0 0 126 126">
  <metadata><?xpacket begin="﻿" id="W5M0MpCehiHzreSzNTczkc9d"?>
<x:xmpmeta xmlns:x="adobe:ns:meta/" x:xmptk="Adobe XMP Core 5.6-c142 79.160924, 2017/07/13-01:06:39        ">
   <rdf:RDF xmlns:rdf="http://www.w3.org/1999/02/22-rdf-syntax-ns#">
      <rdf:Description rdf:about=""/>
   </rdf:RDF>
</x:xmpmeta>
                                                                                                    
                                                                                                    
                                                                                                    
                                                                                                    
                                                                                                    
                                                                                                    
                                                                                                    
                                                                                                    
                                                                                                    
                                                                                                    
                                                                                                    
                                                                                                    
                                                                                                    
                                                                                                    
                                                                                                    
                                                                                                    
                                                                                                    
                                                                                                    
                                                                                                    
                                                                                                    
                           
<?xpacket end="w"?></metadata>
<defs>
    <style>
      .cls-1 {
        fill: #fdc536;
      }

      .cls-2 {
        fill-rule: evenodd;
      }
    </style>
  </defs>
  <circle id="Эллипс_1" data-name="Эллипс 1" class="cls-1" cx="63" cy="63" r="63"/>
  <path id="Forma_1" data-name="Forma 1" class="cls-2" d="M1230.42,959.465a4.253,4.253,0,1,0,4.27,4.253A4.261,4.261,0,0,0,1230.42,959.465Zm0,5.412a1.159,1.159,0,1,1,1.17-1.159A1.161,1.161,0,0,1,1230.42,964.877Zm44.15-5.412a4.253,4.253,0,1,0,4.27,4.253A4.261,4.261,0,0,0,1274.57,959.465Zm0,5.412a1.159,1.159,0,1,1,1.17-1.159A1.161,1.161,0,0,1,1274.57,964.877Zm18.46-8.622V925.929a8.958,8.958,0,0,0-8.97-8.93H1225.9a13.918,13.918,0,0,0-13.93,13.873v25.383a4.908,4.908,0,0,0-1.97,3.922v0.19a4.917,4.917,0,0,0,4.92,4.9h6.32a9.321,9.321,0,0,0,18.37,0h25.78a9.321,9.321,0,0,0,18.37,0h6.32a4.917,4.917,0,0,0,4.92-4.9v-0.19A4.908,4.908,0,0,0,1293.03,956.255Zm-3.11-16.063h-4.26a0.389,0.389,0,0,1-.39-0.394V927.871a0.389,0.389,0,0,1,.39-0.394h4.26v12.715Zm-76.81,20.175v-0.19a1.809,1.809,0,0,1,1.81-1.807h7.9a9.265,9.265,0,0,0-1.58,3.8h-6.32A1.808,1.808,0,0,1,1213.11,960.367Zm17.31,9.539a6.188,6.188,0,1,1,6.22-6.188A6.209,6.209,0,0,1,1230.42,969.906Zm34.97-7.735h-25.78a9.319,9.319,0,0,0-13.05-6.9h-11.48v-24.4a10.809,10.809,0,0,1,10.82-10.778h58.16a5.857,5.857,0,0,1,5.65,4.289h-4.05a3.5,3.5,0,0,0-3.5,3.488V939.8a3.5,3.5,0,0,0,3.5,3.488h4.26v11.99h-11.48A9.319,9.319,0,0,0,1265.39,962.171Zm9.18,7.735a6.188,6.188,0,1,1,6.22-6.188A6.209,6.209,0,0,1,1274.57,969.906Zm17.32-9.539a1.808,1.808,0,0,1-1.81,1.8h-6.32a9.265,9.265,0,0,0-1.58-3.8h7.9a1.809,1.809,0,0,1,1.81,1.807v0.19ZM1277.58,939.8V927.871a3.5,3.5,0,0,0-3.5-3.489h-47.82a7.486,7.486,0,0,0-7.49,7.464V939.8a3.5,3.5,0,0,0,3.5,3.488h51.81A3.5,3.5,0,0,0,1277.58,939.8Zm-27.85-12.321h12.2v12.715h-12.2V927.477Zm-3.11,12.715h-12.21V927.477h12.21v12.715Zm-24.74-.394v-7.952a4.376,4.376,0,0,1,4.38-4.369h5.05v12.715h-9.04A0.389,0.389,0,0,1,1221.88,939.8Zm52.59,0a0.4,0.4,0,0,1-.39.394h-9.04V927.477h9.04a0.4,0.4,0,0,1,.39.394V939.8Zm12.04,13.072a1.555,1.555,0,0,0,1.56-1.547v-1.375a1.555,1.555,0,0,0-3.11,0v1.375A1.553,1.553,0,0,0,1286.51,952.87Z" transform="translate(-1189 -882)"/>
</svg>
